<svg height="512pt" viewBox="0 0 512 512" width="512pt" xmlns="http://www.w3.org/2000/svg" xmlns:xlink="http://www.w3.org/1999/xlink"><linearGradient id="a" gradientTransform="matrix(1 0 0 -1 0 -21722)" gradientUnits="userSpaceOnUse" x1="0" x2="512" y1="-21978" y2="-21978"><stop offset="0" stop-color="#31d8ff"/><stop offset="1" stop-color="#ff80ff"/></linearGradient><path d="m512 256c0 141.386719-114.613281 256-256 256s-256-114.613281-256-256 114.613281-256 256-256 256 114.613281 256 256zm0 0" fill="url(#a)"/><g fill="#fff"><path d="m256 396.425781c-49.390625 0-99.390625-23.148437-144.589844-66.941406-33.4375-32.394531-52.535156-64.515625-53.332031-65.867187-2.769531-4.699219-2.769531-10.53125 0-15.230469.796875-1.355469 19.894531-33.476563 53.332031-65.871094 45.199219-43.789063 95.199219-66.9375 144.589844-66.9375s99.390625 23.148437 144.589844 66.9375c33.4375 32.394531 52.535156 64.519531 53.332031 65.871094 2.769531 4.699219 2.769531 10.53125 0 15.230469-.796875 1.351562-19.894531 33.476562-53.332031 65.867187-45.199219 43.792969-95.199219 66.941406-144.589844 66.941406zm-167.171875-140.425781c7.320313 10.867188 22.566406 31.800781 43.984375 52.449219 39.902344 38.46875 81.347656 57.976562 123.1875 57.976562 86.070312 0 149.566406-84.304687 167.171875-110.425781-7.324219-10.875-22.566406-31.804688-43.984375-52.449219-39.902344-38.46875-81.347656-57.976562-123.1875-57.976562-86.070312 0-149.566406 84.304687-167.171875 110.425781zm0 0"/><path d="m256 349.390625c-51.496094 0-93.390625-41.894531-93.390625-93.390625s41.894531-93.390625 93.390625-93.390625 93.390625 41.894531 93.390625 93.390625-41.894531 93.390625-93.390625 93.390625zm0-156.78125c-34.953125 0-63.390625 28.4375-63.390625 63.390625s28.4375 63.390625 63.390625 63.390625 63.390625-28.4375 63.390625-63.390625-28.4375-63.390625-63.390625-63.390625zm0 0"/></g></svg>